# xmcd
#
# Track frame offsets: 
#        180
#        12166
#        23380
#        35732
#        49185
#        62364
#        78531
#        92550
#        105845
#        120031
#        137095
#        150100
#        163295
#        176623
#        191587
#        203769
#
# Disc length: 2875 seconds
#
# Revision: 0
# Processed by: cddbd v1.5.2PL0 Copyright (c) Steve Scherf et al.
# Submitted via: ExactAudioCopy v0.95a4
#
DISCID=b50b3910
DTITLE=Various Artist - Blues Bandits CD 2
DYEAR=2005
DGENRE=Blues
TTITLE0=01 B. B. King: Miss Martha King 1949
TTITLE1=02 Champion Jack Dupree: Chain Gang Blues 1941
TTITLE2=03 Brother George and His Sanctified Singers: Precious Lord 1940
TTITLE3=04 Brownie McGhee: I don't believe in Love 1941
TTITLE4=05 John Lee Hooker: Union Station Blues 1951
TTITLE5=06 B. B. King: The other Night Blues 1950
TTITLE6=07 Arthur Big Boy Crudup: Cry Your Blues away 1947
TTITLE7=08 Leadbelly: Death Letter Blues 1935
TTITLE8=09 Big Joe Williams: Somebody's been worryin' 1945
TTITLE9=10 David Edwards: The Army Blues 1942
TTITLE10=11 Arthur Big Boy Crudup: Crudup's After Hours 1946
TTITLE11=12 Big Bill Broonzy: Plow Hand Blues 1940
TTITLE12=13 Josh White: Silicosis is killin' Me 1936
TTITLE13=14 Muddy Waters: Honey Bee 1951
TTITLE14=15 T-bone Walker: Midnight Blues 1949
TTITLE15=16 Sonny Terry: Worried Man Blues 1947
EXTD=
EXTT0=
EXTT1=
EXTT2=
EXTT3=
EXTT4=
EXTT5=
EXTT6=
EXTT7=
EXTT8=
EXTT9=
EXTT10=
EXTT11=
EXTT12=
EXTT13=
EXTT14=
EXTT15=
PLAYORDER=
